<svg xmlns="http://www.w3.org/2000/svg" xmlns:xlink="http://www.w3.org/1999/xlink" width="180" zoomAndPan="magnify" viewBox="0 0 135 225" height="300" preserveAspectRatio="xMidYMid meet" version="1.0"><defs><clipPath id="b7979b33e5"><path d="M 109.628906 120.652344 L 135 120.652344 L 135 146 L 109.628906 146 Z M 109.628906 120.652344 " clip-rule="nonzero"/></clipPath><clipPath id="543624bf97"><path d="M 23.964844 149.5 L 42.714844 149.5 L 42.714844 168.25 L 23.964844 168.25 Z M 23.964844 149.5 " clip-rule="nonzero"/></clipPath><clipPath id="6f9d9c8378"><path d="M 16.417969 58.8125 L 119.917969 58.8125 L 119.917969 162.3125 L 16.417969 162.3125 Z M 16.417969 58.8125 " clip-rule="nonzero"/></clipPath><clipPath id="dba1222de2"><path d="M 5.390625 41.332031 L 16.640625 41.332031 L 16.640625 52.582031 L 5.390625 52.582031 Z M 5.390625 41.332031 " clip-rule="nonzero"/></clipPath><clipPath id="759634ae43"><path d="M 0 51.730469 L 37.5 51.730469 L 37.5 88.480469 L 0 88.480469 Z M 0 51.730469 " clip-rule="nonzero"/></clipPath><clipPath id="c22a8f7235"><path d="M 25.183594 34.808594 L 49.183594 34.808594 L 49.183594 58.808594 L 25.183594 58.808594 Z M 25.183594 34.808594 " clip-rule="nonzero"/></clipPath><clipPath id="3efd96d477"><path d="M 93.957031 39 L 119.457031 39 L 119.457031 64.433594 L 93.957031 64.433594 Z M 93.957031 39 " clip-rule="nonzero"/></clipPath><clipPath id="b53fcbbadf"><path d="M 40.8125 162.109375 L 58 162.109375 L 58 179 L 40.8125 179 Z M 40.8125 162.109375 " clip-rule="nonzero"/></clipPath><clipPath id="1197730edf"><path d="M 109.628906 59.28125 L 120.878906 59.28125 L 120.878906 70.53125 L 109.628906 70.53125 Z M 109.628906 59.28125 " clip-rule="nonzero"/></clipPath></defs><g clip-path="url(#b7979b33e5)"><path fill="#ed955f" d="M 134.976562 133.253906 C 134.976562 133.976562 133.933594 134.597656 133.8125 135.28125 C 133.691406 135.988281 134.457031 136.929688 134.21875 137.589844 C 133.976562 138.257812 132.777344 138.484375 132.429688 139.09375 C 132.074219 139.707031 132.46875 140.855469 132.019531 141.398438 C 131.5625 141.941406 130.363281 141.75 129.820312 142.207031 C 129.277344 142.660156 129.261719 143.871094 128.648438 144.230469 C 128.039062 144.585938 126.980469 143.992188 126.308594 144.238281 C 125.648438 144.476562 125.21875 145.617188 124.511719 145.738281 C 123.824219 145.859375 123.035156 144.9375 122.3125 144.9375 C 121.59375 144.9375 120.800781 145.855469 120.113281 145.738281 C 119.410156 145.617188 118.980469 144.476562 118.320312 144.238281 C 117.652344 143.992188 116.59375 144.582031 115.980469 144.230469 C 115.367188 143.878906 115.347656 142.660156 114.808594 142.207031 C 114.265625 141.75 113.066406 141.941406 112.609375 141.398438 C 112.152344 140.855469 112.554688 139.710938 112.199219 139.097656 C 111.84375 138.492188 110.652344 138.261719 110.410156 137.59375 C 110.171875 136.933594 110.9375 135.996094 110.816406 135.289062 C 110.695312 134.597656 109.648438 133.980469 109.648438 133.261719 C 109.648438 132.539062 110.695312 131.917969 110.816406 131.234375 C 110.9375 130.527344 110.171875 129.585938 110.410156 128.925781 C 110.652344 128.257812 111.847656 128.03125 112.199219 127.421875 C 112.554688 126.808594 112.160156 125.660156 112.609375 125.117188 C 113.066406 124.574219 114.265625 124.765625 114.808594 124.3125 C 115.351562 123.855469 115.367188 122.644531 115.980469 122.285156 C 116.585938 121.929688 117.648438 122.523438 118.320312 122.277344 C 118.980469 122.039062 119.410156 120.898438 120.113281 120.777344 C 120.792969 120.652344 121.589844 121.574219 122.308594 121.574219 C 123.027344 121.574219 123.824219 120.65625 124.507812 120.773438 C 125.214844 120.894531 125.644531 122.035156 126.300781 122.273438 C 126.972656 122.515625 128.03125 121.929688 128.644531 122.277344 C 129.257812 122.632812 129.277344 123.851562 129.8125 124.304688 C 130.355469 124.761719 131.558594 124.570312 132.015625 125.113281 C 132.46875 125.652344 132.070312 126.800781 132.425781 127.414062 C 132.777344 128.019531 133.96875 128.25 134.214844 128.917969 C 134.453125 129.578125 133.6875 130.515625 133.808594 131.222656 C 133.933594 131.914062 134.976562 132.53125 134.976562 133.253906 Z M 134.976562 133.253906 " fill-opacity="1" fill-rule="nonzero"/></g><g clip-path="url(#543624bf97)"><path fill="#ed955f" d="M 42.820312 158.875 C 42.820312 159.410156 42.042969 159.875 41.953125 160.382812 C 41.863281 160.910156 42.429688 161.609375 42.253906 162.097656 C 42.074219 162.597656 41.183594 162.765625 40.921875 163.21875 C 40.660156 163.675781 40.953125 164.53125 40.617188 164.933594 C 40.277344 165.335938 39.386719 165.195312 38.980469 165.535156 C 38.578125 165.871094 38.566406 166.773438 38.109375 167.042969 C 37.660156 167.304688 36.871094 166.863281 36.371094 167.046875 C 35.878906 167.222656 35.558594 168.070312 35.035156 168.160156 C 34.523438 168.25 33.933594 167.566406 33.398438 167.566406 C 32.863281 167.566406 32.273438 168.246094 31.761719 168.160156 C 31.238281 168.070312 30.917969 167.222656 30.429688 167.046875 C 29.929688 166.863281 29.144531 167.300781 28.6875 167.042969 C 28.230469 166.777344 28.214844 165.871094 27.816406 165.535156 C 27.414062 165.195312 26.519531 165.335938 26.179688 164.933594 C 25.839844 164.53125 26.136719 163.679688 25.875 163.222656 C 25.609375 162.769531 24.726562 162.601562 24.542969 162.101562 C 24.367188 161.613281 24.9375 160.914062 24.84375 160.386719 C 24.753906 159.875 23.980469 159.414062 23.980469 158.878906 C 23.980469 158.34375 24.753906 157.882812 24.84375 157.371094 C 24.9375 156.847656 24.367188 156.148438 24.542969 155.65625 C 24.726562 155.160156 25.613281 154.988281 25.875 154.539062 C 26.136719 154.082031 25.84375 153.226562 26.179688 152.824219 C 26.519531 152.417969 27.414062 152.5625 27.816406 152.222656 C 28.21875 151.882812 28.230469 150.984375 28.6875 150.714844 C 29.140625 150.453125 29.925781 150.894531 30.429688 150.710938 C 30.917969 150.535156 31.238281 149.6875 31.761719 149.597656 C 32.269531 149.5 32.859375 150.1875 33.394531 150.1875 C 33.929688 150.1875 34.523438 149.503906 35.03125 149.59375 C 35.554688 149.683594 35.875 150.53125 36.367188 150.707031 C 36.863281 150.890625 37.652344 150.453125 38.105469 150.710938 C 38.5625 150.976562 38.578125 151.878906 38.976562 152.21875 C 39.382812 152.558594 40.273438 152.414062 40.613281 152.820312 C 40.953125 153.222656 40.65625 154.074219 40.917969 154.53125 C 41.183594 154.984375 42.070312 155.152344 42.25 155.648438 C 42.425781 156.140625 41.859375 156.835938 41.949219 157.363281 C 42.042969 157.878906 42.820312 158.335938 42.820312 158.875 Z M 42.820312 158.875 " fill-opacity="1" fill-rule="nonzero"/></g><g clip-path="url(#6f9d9c8378)"><path fill="#b80037" d="M 68.0625 58.8125 C 39.542969 58.8125 16.417969 81.933594 16.417969 110.457031 C 16.417969 138.980469 39.542969 162.101562 68.0625 162.101562 C 96.585938 162.101562 119.707031 138.980469 119.707031 110.457031 C 119.707031 81.933594 96.585938 58.8125 68.0625 58.8125 Z M 68.0625 155.644531 C 43.148438 155.644531 22.875 135.375 22.875 110.457031 C 22.875 85.539062 43.148438 65.269531 68.0625 65.269531 C 92.980469 65.269531 113.253906 85.539062 113.253906 110.457031 C 113.253906 135.375 92.980469 155.644531 68.0625 155.644531 Z M 68.0625 155.644531 " fill-opacity="1" fill-rule="nonzero"/></g><path fill="#b80037" d="M 55.152344 97.816406 C 55.152344 98.238281 55.109375 98.660156 55.027344 99.074219 C 54.945312 99.492188 54.824219 99.894531 54.660156 100.285156 C 54.5 100.675781 54.300781 101.050781 54.0625 101.402344 C 53.828125 101.753906 53.5625 102.082031 53.261719 102.378906 C 52.960938 102.679688 52.636719 102.949219 52.285156 103.183594 C 51.929688 103.417969 51.558594 103.617188 51.167969 103.78125 C 50.777344 103.941406 50.371094 104.0625 49.957031 104.148438 C 49.539062 104.230469 49.121094 104.269531 48.695312 104.269531 C 48.273438 104.269531 47.851562 104.230469 47.4375 104.148438 C 47.023438 104.0625 46.617188 103.941406 46.226562 103.78125 C 45.835938 103.617188 45.460938 103.417969 45.109375 103.183594 C 44.757812 102.949219 44.433594 102.679688 44.132812 102.378906 C 43.832031 102.082031 43.566406 101.753906 43.328125 101.402344 C 43.09375 101.050781 42.894531 100.675781 42.734375 100.285156 C 42.570312 99.894531 42.449219 99.492188 42.367188 99.074219 C 42.28125 98.660156 42.242188 98.238281 42.242188 97.816406 C 42.242188 97.390625 42.28125 96.972656 42.367188 96.554688 C 42.449219 96.140625 42.570312 95.738281 42.734375 95.34375 C 42.894531 94.953125 43.09375 94.582031 43.328125 94.230469 C 43.566406 93.875 43.832031 93.550781 44.132812 93.25 C 44.433594 92.949219 44.757812 92.683594 45.109375 92.449219 C 45.460938 92.210938 45.835938 92.011719 46.226562 91.851562 C 46.617188 91.6875 47.023438 91.566406 47.4375 91.484375 C 47.851562 91.402344 48.273438 91.359375 48.695312 91.359375 C 49.121094 91.359375 49.539062 91.402344 49.957031 91.484375 C 50.371094 91.566406 50.777344 91.6875 51.167969 91.851562 C 51.558594 92.011719 51.929688 92.210938 52.285156 92.449219 C 52.636719 92.683594 52.960938 92.949219 53.261719 93.25 C 53.5625 93.550781 53.828125 93.875 54.0625 94.230469 C 54.300781 94.582031 54.5 94.953125 54.660156 95.34375 C 54.824219 95.738281 54.945312 96.140625 55.027344 96.554688 C 55.109375 96.972656 55.152344 97.390625 55.152344 97.816406 Z M 55.152344 97.816406 " fill-opacity="1" fill-rule="nonzero"/><path fill="#b80037" d="M 93.886719 97.816406 C 93.886719 98.238281 93.84375 98.660156 93.761719 99.074219 C 93.679688 99.492188 93.554688 99.894531 93.394531 100.285156 C 93.230469 100.675781 93.035156 101.050781 92.796875 101.402344 C 92.5625 101.753906 92.292969 102.082031 91.996094 102.378906 C 91.695312 102.679688 91.371094 102.949219 91.015625 103.183594 C 90.664062 103.417969 90.292969 103.617188 89.902344 103.78125 C 89.507812 103.941406 89.105469 104.0625 88.691406 104.148438 C 88.273438 104.230469 87.855469 104.269531 87.429688 104.269531 C 87.007812 104.269531 86.585938 104.230469 86.171875 104.148438 C 85.753906 104.0625 85.351562 103.941406 84.960938 103.78125 C 84.566406 103.617188 84.195312 103.417969 83.84375 103.183594 C 83.492188 102.949219 83.164062 102.679688 82.867188 102.378906 C 82.566406 102.082031 82.296875 101.753906 82.0625 101.402344 C 81.828125 101.050781 81.628906 100.675781 81.464844 100.285156 C 81.304688 99.894531 81.179688 99.492188 81.097656 99.074219 C 81.015625 98.660156 80.976562 98.238281 80.976562 97.816406 C 80.976562 97.390625 81.015625 96.972656 81.097656 96.554688 C 81.179688 96.140625 81.304688 95.738281 81.464844 95.34375 C 81.628906 94.953125 81.828125 94.582031 82.0625 94.230469 C 82.296875 93.875 82.566406 93.550781 82.867188 93.25 C 83.164062 92.949219 83.492188 92.683594 83.84375 92.449219 C 84.195312 92.210938 84.566406 92.011719 84.960938 91.851562 C 85.351562 91.6875 85.753906 91.566406 86.171875 91.484375 C 86.585938 91.402344 87.007812 91.359375 87.429688 91.359375 C 87.855469 91.359375 88.273438 91.402344 88.691406 91.484375 C 89.105469 91.566406 89.507812 91.6875 89.902344 91.851562 C 90.292969 92.011719 90.664062 92.210938 91.015625 92.449219 C 91.371094 92.683594 91.695312 92.949219 91.996094 93.25 C 92.292969 93.550781 92.5625 93.875 92.796875 94.230469 C 93.035156 94.582031 93.230469 94.953125 93.394531 95.34375 C 93.554688 95.738281 93.679688 96.140625 93.761719 96.554688 C 93.84375 96.972656 93.886719 97.390625 93.886719 97.816406 Z M 93.886719 97.816406 " fill-opacity="1" fill-rule="nonzero"/><path fill="#b80037" d="M 92.171875 120.535156 C 90.585938 119.679688 88.605469 120.265625 87.746094 121.847656 C 87.6875 121.964844 81.476562 133.144531 68.0625 133.144531 C 54.472656 133.144531 48.648438 122.359375 48.414062 121.914062 C 47.589844 120.3125 45.621094 119.679688 44.015625 120.5 C 42.414062 121.328125 41.78125 123.296875 42.605469 124.898438 C 42.914062 125.503906 50.40625 139.675781 68.066406 139.675781 C 85.324219 139.675781 93.167969 125.5625 93.492188 124.964844 C 94.351562 123.375 93.761719 121.394531 92.171875 120.535156 Z M 92.171875 120.535156 " fill-opacity="1" fill-rule="nonzero"/><g clip-path="url(#dba1222de2)"><path fill="#ed955f" d="M 16.410156 46.808594 C 16.410156 47.121094 15.953125 47.394531 15.902344 47.691406 C 15.847656 47.996094 16.179688 48.40625 16.078125 48.691406 C 15.972656 48.984375 15.453125 49.082031 15.300781 49.347656 C 15.144531 49.613281 15.316406 50.113281 15.121094 50.347656 C 14.921875 50.585938 14.402344 50.5 14.167969 50.699219 C 13.929688 50.898438 13.921875 51.425781 13.65625 51.582031 C 13.394531 51.734375 12.933594 51.476562 12.640625 51.582031 C 12.351562 51.6875 12.164062 52.183594 11.859375 52.234375 C 11.558594 52.289062 11.214844 51.886719 10.902344 51.886719 C 10.589844 51.886719 10.246094 52.285156 9.949219 52.234375 C 9.640625 52.183594 9.453125 51.6875 9.167969 51.582031 C 8.878906 51.476562 8.417969 51.734375 8.148438 51.582031 C 7.882812 51.425781 7.875 50.898438 7.640625 50.699219 C 7.40625 50.5 6.882812 50.585938 6.683594 50.347656 C 6.488281 50.113281 6.660156 49.617188 6.507812 49.347656 C 6.351562 49.085938 5.835938 48.984375 5.730469 48.695312 C 5.625 48.410156 5.957031 48 5.90625 47.691406 C 5.851562 47.394531 5.398438 47.125 5.398438 46.8125 C 5.398438 46.5 5.851562 46.226562 5.90625 45.929688 C 5.957031 45.625 5.625 45.214844 5.730469 44.929688 C 5.835938 44.636719 6.355469 44.539062 6.507812 44.273438 C 6.660156 44.007812 6.488281 43.507812 6.683594 43.269531 C 6.882812 43.035156 7.40625 43.121094 7.640625 42.921875 C 7.875 42.722656 7.882812 42.195312 8.148438 42.039062 C 8.414062 41.886719 8.875 42.144531 9.167969 42.039062 C 9.453125 41.933594 9.640625 41.4375 9.949219 41.386719 C 10.242188 41.332031 10.589844 41.730469 10.902344 41.730469 C 11.214844 41.730469 11.558594 41.332031 11.859375 41.382812 C 12.164062 41.4375 12.351562 41.933594 12.636719 42.035156 C 12.929688 42.140625 13.386719 41.886719 13.65625 42.039062 C 13.921875 42.191406 13.929688 42.71875 14.164062 42.917969 C 14.398438 43.117188 14.921875 43.035156 15.121094 43.269531 C 15.316406 43.503906 15.144531 44.003906 15.296875 44.269531 C 15.453125 44.535156 15.96875 44.632812 16.074219 44.921875 C 16.179688 45.210938 15.847656 45.617188 15.898438 45.925781 C 15.953125 46.226562 16.410156 46.492188 16.410156 46.808594 Z M 16.410156 46.808594 " fill-opacity="1" fill-rule="nonzero"/></g><g clip-path="url(#759634ae43)"><path fill="#ffcd00" d="M 37.472656 70.105469 C 37.472656 71.152344 35.929688 72.0625 35.75 73.058594 C 35.570312 74.085938 36.699219 75.460938 36.347656 76.421875 C 35.988281 77.398438 34.21875 77.730469 33.703125 78.617188 C 33.179688 79.511719 33.761719 81.1875 33.097656 81.976562 C 32.421875 82.769531 30.648438 82.488281 29.84375 83.152344 C 29.042969 83.816406 29.019531 85.582031 28.113281 86.109375 C 27.214844 86.625 25.648438 85.761719 24.652344 86.117188 C 23.679688 86.464844 23.042969 88.125 22 88.300781 C 20.984375 88.480469 19.8125 87.136719 18.75 87.136719 C 17.6875 87.136719 16.511719 88.472656 15.5 88.300781 C 14.457031 88.125 13.820312 86.464844 12.847656 86.117188 C 11.859375 85.761719 10.292969 86.617188 9.386719 86.109375 C 8.480469 85.589844 8.449219 83.816406 7.65625 83.152344 C 6.851562 82.488281 5.078125 82.769531 4.402344 81.976562 C 3.730469 81.1875 4.320312 79.519531 3.796875 78.625 C 3.273438 77.738281 1.511719 77.40625 1.152344 76.429688 C 0.800781 75.46875 1.929688 74.101562 1.75 73.066406 C 1.570312 72.0625 0.0273438 71.160156 0.0273438 70.113281 C 0.0273438 69.0625 1.570312 68.15625 1.75 67.15625 C 1.929688 66.128906 0.800781 64.753906 1.152344 63.796875 C 1.511719 62.820312 3.28125 62.488281 3.796875 61.601562 C 4.320312 60.707031 3.738281 59.03125 4.402344 58.238281 C 5.078125 57.449219 6.851562 57.730469 7.65625 57.0625 C 8.457031 56.398438 8.480469 54.632812 9.386719 54.109375 C 10.285156 53.59375 11.851562 54.457031 12.847656 54.101562 C 13.820312 53.753906 14.457031 52.09375 15.5 51.914062 C 16.503906 51.730469 17.679688 53.074219 18.742188 53.074219 C 19.804688 53.074219 20.984375 51.738281 21.992188 51.90625 C 23.035156 52.085938 23.671875 53.746094 24.644531 54.09375 C 25.636719 54.449219 27.199219 53.59375 28.105469 54.101562 C 29.015625 54.617188 29.042969 56.390625 29.835938 57.058594 C 30.640625 57.722656 32.414062 57.441406 33.089844 58.230469 C 33.761719 59.023438 33.171875 60.691406 33.695312 61.585938 C 34.21875 62.472656 35.980469 62.804688 36.339844 63.78125 C 36.691406 64.742188 35.5625 66.109375 35.742188 67.140625 C 35.929688 68.148438 37.472656 69.046875 37.472656 70.105469 Z M 37.472656 70.105469 " fill-opacity="1" fill-rule="nonzero"/></g><g clip-path="url(#c22a8f7235)"><path fill="#ff6200" d="M 49.316406 46.808594 C 49.316406 47.496094 48.324219 48.085938 48.207031 48.738281 C 48.089844 49.410156 48.820312 50.308594 48.59375 50.933594 C 48.359375 51.570312 47.222656 51.789062 46.890625 52.367188 C 46.550781 52.953125 46.929688 54.046875 46.5 54.5625 C 46.0625 55.078125 44.921875 54.894531 44.40625 55.332031 C 43.886719 55.765625 43.875 56.917969 43.289062 57.261719 C 42.710938 57.597656 41.703125 57.035156 41.0625 57.265625 C 40.433594 57.492188 40.023438 58.578125 39.351562 58.691406 C 38.695312 58.808594 37.945312 57.929688 37.257812 57.929688 C 36.574219 57.929688 35.816406 58.804688 35.164062 58.691406 C 34.492188 58.578125 34.082031 57.492188 33.457031 57.265625 C 32.820312 57.035156 31.8125 57.59375 31.226562 57.261719 C 30.644531 56.921875 30.625 55.765625 30.113281 55.332031 C 29.597656 54.894531 28.453125 55.078125 28.019531 54.5625 C 27.585938 54.046875 27.964844 52.957031 27.628906 52.371094 C 27.289062 51.792969 26.15625 51.578125 25.925781 50.9375 C 25.699219 50.3125 26.425781 49.417969 26.308594 48.742188 C 26.195312 48.085938 25.199219 47.5 25.199219 46.8125 C 25.199219 46.128906 26.195312 45.535156 26.308594 44.882812 C 26.425781 44.214844 25.699219 43.316406 25.925781 42.6875 C 26.15625 42.050781 27.292969 41.835938 27.628906 41.253906 C 27.964844 40.671875 27.589844 39.578125 28.019531 39.058594 C 28.453125 38.542969 29.597656 38.726562 30.113281 38.292969 C 30.628906 37.859375 30.644531 36.707031 31.226562 36.363281 C 31.804688 36.023438 32.816406 36.589844 33.457031 36.359375 C 34.082031 36.132812 34.492188 35.046875 35.164062 34.929688 C 35.8125 34.808594 36.570312 35.6875 37.253906 35.6875 C 37.9375 35.6875 38.695312 34.8125 39.347656 34.925781 C 40.019531 35.039062 40.429688 36.125 41.054688 36.351562 C 41.691406 36.585938 42.703125 36.023438 43.285156 36.359375 C 43.867188 36.695312 43.886719 37.855469 44.398438 38.289062 C 44.914062 38.722656 46.058594 38.539062 46.492188 39.054688 C 46.929688 39.570312 46.546875 40.660156 46.882812 41.246094 C 47.222656 41.824219 48.355469 42.042969 48.589844 42.679688 C 48.816406 43.304688 48.085938 44.199219 48.203125 44.875 C 48.324219 45.53125 49.316406 46.117188 49.316406 46.808594 Z M 49.316406 46.808594 " fill-opacity="1" fill-rule="nonzero"/></g><g clip-path="url(#3efd96d477)"><path fill="#ffcd00" d="M 119.445312 51.683594 C 119.445312 52.410156 118.394531 53.039062 118.273438 53.734375 C 118.148438 54.445312 118.917969 55.398438 118.679688 56.066406 C 118.433594 56.742188 117.230469 56.972656 116.878906 57.589844 C 116.523438 58.207031 116.921875 59.371094 116.46875 59.921875 C 116.007812 60.46875 114.800781 60.273438 114.257812 60.734375 C 113.710938 61.199219 113.695312 62.421875 113.078125 62.785156 C 112.46875 63.144531 111.402344 62.546875 110.722656 62.792969 C 110.0625 63.03125 109.628906 64.1875 108.921875 64.308594 C 108.226562 64.433594 107.433594 63.5 106.707031 63.5 C 105.984375 63.5 105.183594 64.425781 104.496094 64.308594 C 103.789062 64.1875 103.355469 63.03125 102.691406 62.792969 C 102.019531 62.546875 100.953125 63.140625 100.335938 62.785156 C 99.722656 62.425781 99.699219 61.199219 99.160156 60.734375 C 98.617188 60.273438 97.40625 60.46875 96.949219 59.921875 C 96.488281 59.371094 96.894531 58.214844 96.535156 57.59375 C 96.179688 56.976562 94.980469 56.746094 94.738281 56.070312 C 94.496094 55.402344 95.265625 54.457031 95.144531 53.738281 C 95.023438 53.039062 93.972656 52.414062 93.972656 51.6875 C 93.972656 50.960938 95.023438 50.328125 95.144531 49.636719 C 95.265625 48.925781 94.496094 47.96875 94.738281 47.304688 C 94.980469 46.628906 96.183594 46.398438 96.535156 45.78125 C 96.894531 45.160156 96.496094 43.996094 96.949219 43.449219 C 97.40625 42.898438 98.617188 43.09375 99.160156 42.632812 C 99.707031 42.171875 99.722656 40.945312 100.335938 40.582031 C 100.949219 40.222656 102.015625 40.824219 102.691406 40.578125 C 103.355469 40.335938 103.789062 39.183594 104.496094 39.058594 C 105.179688 38.933594 105.980469 39.867188 106.703125 39.867188 C 107.425781 39.867188 108.226562 38.9375 108.914062 39.054688 C 109.625 39.179688 110.054688 40.332031 110.71875 40.574219 C 111.390625 40.820312 112.457031 40.222656 113.074219 40.578125 C 113.691406 40.9375 113.710938 42.167969 114.25 42.628906 C 114.796875 43.089844 116.003906 42.894531 116.460938 43.445312 C 116.921875 43.992188 116.519531 45.152344 116.875 45.769531 C 117.230469 46.386719 118.429688 46.617188 118.675781 47.292969 C 118.914062 47.960938 118.144531 48.910156 118.265625 49.625 C 118.394531 50.324219 119.445312 50.949219 119.445312 51.683594 Z M 119.445312 51.683594 " fill-opacity="1" fill-rule="nonzero"/></g><g clip-path="url(#b53fcbbadf)"><path fill="#ff6200" d="M 57.839844 170.574219 C 57.839844 171.058594 57.136719 171.476562 57.054688 171.9375 C 56.972656 172.410156 57.488281 173.042969 57.328125 173.484375 C 57.164062 173.933594 56.363281 174.089844 56.125 174.496094 C 55.886719 174.910156 56.152344 175.679688 55.851562 176.046875 C 55.542969 176.410156 54.738281 176.28125 54.375 176.585938 C 54.007812 176.894531 54 177.707031 53.585938 177.949219 C 53.179688 178.1875 52.46875 177.789062 52.015625 177.953125 C 51.570312 178.113281 51.28125 178.878906 50.808594 178.960938 C 50.347656 179.042969 49.816406 178.421875 49.332031 178.421875 C 48.847656 178.421875 48.3125 179.039062 47.855469 178.960938 C 47.378906 178.878906 47.089844 178.113281 46.648438 177.953125 C 46.199219 177.789062 45.488281 178.183594 45.074219 177.949219 C 44.664062 177.710938 44.652344 176.894531 44.289062 176.585938 C 43.925781 176.28125 43.117188 176.410156 42.8125 176.046875 C 42.503906 175.679688 42.773438 174.910156 42.535156 174.5 C 42.296875 174.089844 41.496094 173.9375 41.335938 173.488281 C 41.175781 173.046875 41.6875 172.417969 41.605469 171.941406 C 41.523438 171.476562 40.824219 171.0625 40.824219 170.578125 C 40.824219 170.09375 41.523438 169.675781 41.605469 169.214844 C 41.6875 168.742188 41.175781 168.109375 41.335938 167.667969 C 41.496094 167.21875 42.300781 167.066406 42.535156 166.65625 C 42.773438 166.246094 42.507812 165.472656 42.8125 165.105469 C 43.117188 164.742188 43.925781 164.871094 44.289062 164.566406 C 44.652344 164.257812 44.664062 163.445312 45.074219 163.203125 C 45.484375 162.964844 46.195312 163.363281 46.648438 163.199219 C 47.089844 163.039062 47.378906 162.273438 47.855469 162.191406 C 48.308594 162.109375 48.84375 162.726562 49.328125 162.726562 C 49.8125 162.726562 50.347656 162.113281 50.804688 162.191406 C 51.277344 162.269531 51.566406 163.039062 52.011719 163.199219 C 52.460938 163.359375 53.171875 162.964844 53.582031 163.199219 C 53.996094 163.4375 54.007812 164.257812 54.371094 164.5625 C 54.734375 164.867188 55.542969 164.738281 55.847656 165.105469 C 56.152344 165.46875 55.886719 166.238281 56.125 166.648438 C 56.363281 167.058594 57.160156 167.210938 57.324219 167.660156 C 57.484375 168.101562 56.972656 168.734375 57.050781 169.210938 C 57.136719 169.671875 57.839844 170.089844 57.839844 170.574219 Z M 57.839844 170.574219 " fill-opacity="1" fill-rule="nonzero"/></g><g clip-path="url(#1197730edf)"><path fill="#ff6200" d="M 120.648438 64.761719 C 120.648438 65.074219 120.195312 65.34375 120.140625 65.644531 C 120.085938 65.949219 120.421875 66.359375 120.316406 66.644531 C 120.210938 66.9375 119.691406 67.035156 119.539062 67.300781 C 119.386719 67.566406 119.558594 68.066406 119.359375 68.300781 C 119.164062 68.539062 118.640625 68.453125 118.40625 68.652344 C 118.167969 68.851562 118.164062 69.375 117.894531 69.53125 C 117.632812 69.6875 117.171875 69.429688 116.878906 69.535156 C 116.589844 69.640625 116.40625 70.132812 116.097656 70.1875 C 115.796875 70.238281 115.457031 69.839844 115.140625 69.839844 C 114.828125 69.839844 114.484375 70.238281 114.1875 70.1875 C 113.878906 70.132812 113.691406 69.640625 113.40625 69.535156 C 113.117188 69.429688 112.65625 69.683594 112.390625 69.53125 C 112.121094 69.378906 112.113281 68.851562 111.878906 68.652344 C 111.644531 68.453125 111.121094 68.539062 110.921875 68.300781 C 110.726562 68.066406 110.898438 67.566406 110.746094 67.300781 C 110.589844 67.039062 110.074219 66.9375 109.96875 66.648438 C 109.863281 66.359375 110.195312 65.953125 110.144531 65.644531 C 110.089844 65.34375 109.636719 65.078125 109.636719 64.765625 C 109.636719 64.449219 110.089844 64.179688 110.144531 63.882812 C 110.195312 63.578125 109.863281 63.167969 109.96875 62.878906 C 110.074219 62.589844 110.59375 62.492188 110.746094 62.226562 C 110.898438 61.960938 110.726562 61.460938 110.921875 61.222656 C 111.121094 60.988281 111.644531 61.070312 111.878906 60.875 C 112.117188 60.675781 112.121094 60.148438 112.390625 59.992188 C 112.652344 59.839844 113.113281 60.097656 113.40625 59.992188 C 113.691406 59.886719 113.878906 59.390625 114.1875 59.339844 C 114.480469 59.28125 114.828125 59.683594 115.140625 59.683594 C 115.453125 59.683594 115.796875 59.285156 116.097656 59.335938 C 116.402344 59.390625 116.589844 59.882812 116.875 59.988281 C 117.167969 60.09375 117.628906 59.839844 117.894531 59.992188 C 118.160156 60.144531 118.167969 60.671875 118.402344 60.871094 C 118.636719 61.070312 119.160156 60.984375 119.359375 61.222656 C 119.558594 61.457031 119.382812 61.957031 119.535156 62.222656 C 119.691406 62.484375 120.207031 62.585938 120.316406 62.875 C 120.417969 63.164062 120.085938 63.570312 120.136719 63.878906 C 120.195312 64.179688 120.648438 64.445312 120.648438 64.761719 Z M 120.648438 64.761719 " fill-opacity="1" fill-rule="nonzero"/></g></svg>